<svg width="30" height="29" viewBox="0 0 30 29" fill="none" xmlns="http://www.w3.org/2000/svg">
<path fill-rule="evenodd" clip-rule="evenodd" d="M3.55001 5.52092C1.33552 7.80812 0 10.7676 0 14C0 17.3 1.395 20.3188 3.69187 22.625C3.51187 24.53 2.91188 26.6187 2.24813 28.1863C2.1 28.535 2.385 28.925 2.76 28.865C6.99 28.1713 9.50437 27.1063 10.5994 26.5513C12.0349 26.9341 13.5143 27.127 15 27.125C17.7862 27.125 20.395 26.4602 22.6306 25.3021L3.55001 5.52092ZM27.0745 21.7885C28.9131 19.6099 30 16.916 30 14C30 6.75125 23.2838 0.875 15 0.875C12.573 0.875 10.2805 1.37943 8.25206 2.27501L27.0745 21.7885ZM8.82582 12.6742C9.17746 13.0258 9.375 13.5027 9.375 14C9.375 14.4973 9.17746 14.9742 8.82582 15.3258C8.47419 15.6775 7.99728 15.875 7.5 15.875C7.00272 15.875 6.52581 15.6775 6.17417 15.3258C5.82254 14.9742 5.625 14.4973 5.625 14C5.625 13.5027 5.82254 13.0258 6.17417 12.6742C6.52581 12.3225 7.00272 12.125 7.5 12.125C7.99728 12.125 8.47419 12.3225 8.82582 12.6742ZM23.8258 15.3258C23.4742 15.6775 22.9973 15.875 22.5 15.875C22.0027 15.875 21.5258 15.6775 21.1742 15.3258C20.8225 14.9742 20.625 14.4973 20.625 14C20.625 13.5027 20.8225 13.0258 21.1742 12.6742C21.5258 12.3225 22.0027 12.125 22.5 12.125C22.9973 12.125 23.4742 12.3225 23.8258 12.6742C24.1775 13.0258 24.375 13.5027 24.375 14C24.375 14.4973 24.1775 14.9742 23.8258 15.3258Z" fill="black"/>
<line x1="4.08125" y1="1.96034" x2="29.0812" y2="27.9603" stroke="black" stroke-width="3"/>
</svg>
