<svg width="30" height="30" viewBox="0 0 30 30" fill="none" xmlns="http://www.w3.org/2000/svg">
<path d="M23.4375 13.1701L11.5826 25.0199L9.85921 23.2966L10.0371 23.1187H7.69361C7.24625 23.1187 6.88023 22.7527 6.88023 22.3053V19.9618L6.70281 20.1397C6.46236 20.3837 6.28596 20.6786 6.18988 21.0039L5.02167 24.9793L8.995 23.81C9.2746 23.7135 9.6152 23.5355 9.85921 23.2966L11.5826 25.0199C11.0539 25.5486 10.3981 25.9401 9.68129 26.1485L3.56421 27.9481C3.13617 28.0752 2.67305 27.9583 2.35736 27.5973C2.04167 27.3279 1.92363 26.8653 2.0496 26.4332L3.84889 20.3176C4.06037 19.6008 4.44824 18.945 4.97744 18.4164L16.8288 6.56346L23.4375 13.1701ZM27.0468 4.95756C28.3177 6.22794 28.3177 8.28985 27.0468 9.56074L24.5864 12.0212L17.9777 5.41355L20.4382 2.9531C21.7091 1.6823 23.773 1.6823 25.0439 2.9531L27.0468 4.95756V4.95756Z" fill="black"/>
</svg>
