<svg width="26" height="27" viewBox="0 0 26 27" fill="none" xmlns="http://www.w3.org/2000/svg">
<path fill-rule="evenodd" clip-rule="evenodd" d="M7.52799 12.8652L2.97744 17.4164C2.44824 17.945 2.06037 18.6008 1.84889 19.3176L0.0496027 25.4332C-0.0763686 25.8653 0.0416723 26.3279 0.357363 26.5973C0.673054 26.9583 1.13617 27.0752 1.56421 26.9481L7.68129 25.1485C8.39808 24.9401 9.05386 24.5486 9.58255 24.0199L14.0145 19.5899L7.52799 12.8652ZM18.0025 15.6036L21.4375 12.1701L14.8288 5.56346L11.5148 8.87785L18.0025 15.6036ZM8.03714 22.1187L7.85921 22.2966C7.6152 22.5355 7.2746 22.7135 6.995 22.81L3.02167 23.9793L4.18988 20.0039C4.28596 19.6786 4.46236 19.3837 4.70281 19.1397L4.88023 18.9618V21.3053C4.88023 21.7527 5.24625 22.1187 5.69361 22.1187H8.03714ZM25.0468 8.56074C26.3177 7.28985 26.3177 5.22794 25.0468 3.95756L23.0439 1.9531C21.773 0.682301 19.7091 0.682301 18.4382 1.9531L15.9777 4.41355L22.5864 11.0212L25.0468 8.56074Z" fill="black"/>
<line x1="1.08298" y1="1.96214" x2="24.083" y2="25.9621" stroke="black" stroke-width="3"/>
</svg>
