<svg width="37" height="37" viewBox="0 0 37 37" fill="none" xmlns="http://www.w3.org/2000/svg">
<path d="M33.8398 20.0293L33.5346 21.628C33.2494 23.125 31.8495 24.1302 30.2647 23.9775L27.1104 23.6723C25.7353 23.5397 24.5636 22.5623 24.2136 21.258L23.2408 17.6274C21.7994 17.037 20.2115 16.7672 18.4771 16.818C16.8068 16.854 15.1607 17.2246 13.6363 17.908L13.0335 21.3074C12.8038 22.5962 11.7416 23.5567 10.3941 23.6923L7.25839 24.0068C5.6936 24.1641 4.19202 23.1682 3.74802 21.6789L3.2701 20.0802C2.79681 18.4892 3.21922 16.815 4.38318 15.6849C7.12735 13.0178 11.7061 11.6797 18.1148 11.6704C24.5328 11.6627 29.2518 12.9932 32.2735 15.6602C33.5454 16.7826 34.1389 18.4445 33.8383 20.0293H33.8398Z" fill="black"/>
</svg>
