<svg width="19" height="30" viewBox="0 0 19 30" fill="none" xmlns="http://www.w3.org/2000/svg">
<path d="M3.75 5.625C3.75 4.13316 4.34263 2.70242 5.39752 1.64752C6.45242 0.592632 7.88316 0 9.375 0C10.8668 0 12.2976 0.592632 13.3525 1.64752C14.4074 2.70242 15 4.13316 15 5.625V15C15 16.4918 14.4074 17.9226 13.3525 18.9775C12.2976 20.0324 10.8668 20.625 9.375 20.625C7.88316 20.625 6.45242 20.0324 5.39752 18.9775C4.34263 17.9226 3.75 16.4918 3.75 15V5.625Z" fill="black"/>
<path d="M0.9375 12.1875C1.18614 12.1875 1.4246 12.2863 1.60041 12.4621C1.77623 12.6379 1.875 12.8764 1.875 13.125V15C1.875 16.9891 2.66518 18.8968 4.0717 20.3033C5.47822 21.7098 7.38588 22.5 9.375 22.5C11.3641 22.5 13.2718 21.7098 14.6783 20.3033C16.0848 18.8968 16.875 16.9891 16.875 15V13.125C16.875 12.8764 16.9738 12.6379 17.1496 12.4621C17.3254 12.2863 17.5639 12.1875 17.8125 12.1875C18.0611 12.1875 18.2996 12.2863 18.4754 12.4621C18.6512 12.6379 18.75 12.8764 18.75 13.125V15C18.75 17.3241 17.8868 19.5654 16.3277 21.289C14.7687 23.0126 12.625 24.0957 10.3125 24.3281V28.125H15.9375C16.1861 28.125 16.4246 28.2238 16.6004 28.3996C16.7762 28.5754 16.875 28.8139 16.875 29.0625C16.875 29.3111 16.7762 29.5496 16.6004 29.7254C16.4246 29.9012 16.1861 30 15.9375 30H2.8125C2.56386 30 2.3254 29.9012 2.14959 29.7254C1.97377 29.5496 1.875 29.3111 1.875 29.0625C1.875 28.8139 1.97377 28.5754 2.14959 28.3996C2.3254 28.2238 2.56386 28.125 2.8125 28.125H8.4375V24.3281C6.12503 24.0957 3.98133 23.0126 2.42227 21.289C0.86322 19.5654 -2.91969e-05 17.3241 7.40637e-10 15V13.125C7.40637e-10 12.8764 0.0987722 12.6379 0.274588 12.4621C0.450403 12.2863 0.68886 12.1875 0.9375 12.1875Z" fill="black"/>
</svg>
