<svg width="29" height="31" viewBox="0 0 29 31" fill="none" xmlns="http://www.w3.org/2000/svg">
<path fill-rule="evenodd" clip-rule="evenodd" d="M8.75049 13.9853V16C8.75049 17.4918 9.34312 18.9226 10.398 19.9775C11.4529 21.0324 12.8836 21.625 14.3755 21.625C14.9001 21.625 15.4172 21.5517 15.9131 21.4108L8.75049 13.9853ZM17.3394 22.8895C16.412 23.2885 15.4046 23.5 14.3755 23.5C12.3864 23.5 10.4787 22.7098 9.07219 21.3033C7.66566 19.8968 6.87549 17.9891 6.87549 16V14.125C6.87549 13.8764 6.77672 13.6379 6.6009 13.4621C6.42509 13.2863 6.18663 13.1875 5.93799 13.1875C5.68935 13.1875 5.45089 13.2863 5.27508 13.4621C5.09926 13.6379 5.00049 13.8764 5.00049 14.125V16C5.00046 18.3241 5.86371 20.5654 7.42276 22.289C8.98182 24.0126 11.1255 25.0957 13.438 25.3281V29.125H7.81299C7.56435 29.125 7.32589 29.2238 7.15008 29.3996C6.97426 29.5754 6.87549 29.8139 6.87549 30.0625C6.87549 30.3111 6.97426 30.5496 7.15008 30.7254C7.32589 30.9012 7.56435 31 7.81299 31H20.938C21.1866 31 21.4251 30.9012 21.6009 30.7254C21.7767 30.5496 21.8755 30.3111 21.8755 30.0625C21.8755 29.8139 21.7767 29.5754 21.6009 29.3996C21.4251 29.2238 21.1866 29.125 20.938 29.125H15.313V25.3281C16.5103 25.2078 17.6625 24.8594 18.7116 24.3121L17.3394 22.8895ZM22.6952 20.3214L21.3018 18.8768C21.677 17.9736 21.8755 16.997 21.8755 16V14.125C21.8755 13.8764 21.9743 13.6379 22.1501 13.4621C22.3259 13.2863 22.5643 13.1875 22.813 13.1875C23.0616 13.1875 23.3001 13.2863 23.4759 13.4621C23.6517 13.6379 23.7505 13.8764 23.7505 14.125V16C23.7505 17.5159 23.3833 18.9966 22.6952 20.3214ZM19.8347 17.3558L8.79587 5.91171C8.95293 4.68295 9.51267 3.53287 10.398 2.64752C11.4529 1.59263 12.8836 1 14.3755 1C15.8673 1 17.2981 1.59263 18.353 2.64752C19.4079 3.70242 20.0005 5.13316 20.0005 6.625V16C20.0005 16.4609 19.9439 16.9159 19.8347 17.3558Z" fill="black"/>
<line x1="1.28964" y1="1.96892" x2="27.7896" y2="29.9689" stroke="black" stroke-width="3"/>
</svg>
